<svg width="12" height="52" viewBox="0 0 12 52" fill="none" xmlns="http://www.w3.org/2000/svg">
<path d="M6 0.666667C3.05448 0.666666 0.666667 3.05448 0.666667 6C0.666666 8.94552 3.05448 11.3333 6 11.3333C8.94552 11.3333 11.3333 8.94552 11.3333 6C11.3333 3.05448 8.94552 0.666667 6 0.666667ZM6 40.6667C3.05448 40.6667 0.666665 43.0545 0.666665 46C0.666665 48.9455 3.05448 51.3333 6 51.3333C8.94552 51.3333 11.3333 48.9455 11.3333 46C11.3333 43.0545 8.94552 40.6667 6 40.6667ZM6 6L5 6L5 8L6 8L7 8L7 6L6 6ZM6 12L5 12L5 16L6 16L7 16L7 12L6 12ZM6 20L5 20L5 24L6 24L7 24L7 20L6 20ZM6 28L5 28L5 32L6 32L7 32L7 28L6 28ZM6 36L5 36L5 40L6 40L7 40L7 36L6 36ZM6 44L5 44L5 46L6 46L7 46L7 44L6 44Z" fill="#97D5D0"/>
</svg>
