<svg width="37" height="42" viewBox="0 0 37 42" fill="none" xmlns="http://www.w3.org/2000/svg">
<path d="M0 2.5571C0 2.45055 0.0980155 2.45054 0.0980155 2.34399C0.392055 1.06531 1.17616 0.425979 2.35232 0.106311C3.20177 -0.106801 4.05121 -0.000241727 4.90066 0.425982C5.81545 0.994281 6.27285 1.88225 6.27285 3.08988C6.33819 6.07345 6.33819 9.05702 6.27285 12.0406C6.27285 16.8001 6.27285 21.5596 6.27285 26.3191C6.27285 26.9584 6.33819 27.5978 6.46888 28.2371C6.79559 29.7289 7.48168 30.972 8.52715 31.9666C9.24592 32.6059 10.0627 33.1387 10.9775 33.5649C12.0556 33.9911 13.2318 34.3108 14.506 34.5239C16.2702 34.737 18.0344 34.8436 19.7987 34.737C20.7788 34.666 21.7916 34.5594 22.8371 34.4174C24.2093 34.0977 25.5815 33.6715 26.9536 32.9256C27.9338 32.2862 28.8159 31.4338 29.404 30.2617C29.8614 29.4092 30.1227 28.4857 30.1881 27.4912C30.2534 26.994 30.2861 26.4967 30.2861 25.9994C30.2861 18.3984 30.2861 10.7974 30.2861 3.19644C30.2861 1.91777 30.9722 0.745652 32.2463 0.319428C33.2265 -0.000240108 34.1086 -0.000243378 35.0887 0.532537C36.0689 1.0298 36.5589 1.91777 36.5589 3.19644C36.5589 11.4368 36.5589 19.6771 36.5589 27.9174C36.5589 29.8354 36.1669 31.6469 35.3828 33.3518C34.9254 34.2753 34.37 35.1277 33.7165 35.9091C32.2463 37.5075 30.5801 38.6796 28.7179 39.532C27.0517 40.3845 25.1894 40.9173 23.2291 41.2369C22.053 41.4501 20.8768 41.5921 19.7007 41.6632C19.6353 41.6632 19.57 41.6632 19.5046 41.6632C18.6552 41.6632 17.8384 41.6632 17.0543 41.6632C16.989 41.6632 16.9236 41.6632 16.8583 41.6632C16.5316 41.5921 16.2049 41.5566 15.8781 41.5566C14.6366 41.4856 13.3951 41.308 12.1536 41.0238C10.4547 40.5976 8.82119 39.9938 7.25298 39.2124C5.78278 38.4665 4.50861 37.5075 3.33245 36.2288C2.25431 35.1632 1.4702 33.9911 0.882121 32.6059C0.490068 31.4693 0.2287 30.2972 0.0980155 29.0896C0.0980155 28.983 0.0980132 28.7699 0 28.6633C0 19.9257 0 11.2237 0 2.5571Z" fill="#000011"/>
<path d="M8.23327 6.71289C8.4293 6.78393 8.59265 6.85496 8.72334 6.926C10.0955 7.35222 11.3697 7.56534 12.7419 7.77845C13.526 7.92053 14.3101 8.02708 15.0942 8.09811C15.6169 8.16915 16.107 8.20467 16.5644 8.20467C17.1525 8.27571 17.7079 8.31123 18.2306 8.31123C19.5048 8.31123 20.6809 8.31122 21.8571 8.20467C23.164 8.06259 24.4381 7.84948 25.6796 7.56533C26.3984 7.42326 27.1171 7.21015 27.8359 6.926C28.0319 6.926 28.228 6.81945 28.522 6.81945C28.522 6.89048 28.522 6.96152 28.522 7.03255C28.522 7.60085 28.522 8.16915 28.522 8.73745C28.522 8.95056 28.522 9.1992 28.522 9.48335C28.522 14.3139 28.522 19.1089 28.522 23.8684C28.522 24.8274 28.522 25.7864 28.326 26.7454C28.1953 27.6689 27.8359 28.4858 27.2478 29.1962C26.5617 30.0487 25.7776 30.688 24.7975 31.2208C23.8174 31.647 22.8372 31.9667 21.7591 32.1798C20.3216 32.4639 18.8514 32.5705 17.3485 32.4994C16.0743 32.3929 14.8982 32.2863 13.624 31.8601C12.6439 31.5404 11.7617 31.2208 10.8796 30.5814C9.60546 29.8355 8.72333 28.5569 8.33128 26.9585C8.13525 26.3192 8.13525 25.6799 8.13525 24.934C8.13525 21.9504 8.13525 18.9668 8.13525 15.9833C8.13525 13.0707 8.13525 10.1582 8.13525 7.24567C8.13525 7.13911 8.13526 6.926 8.23327 6.71289Z" fill="#000011"/>
</svg>
